<svg width="24" height="27" viewBox="0 0 24 27" fill="none" xmlns="http://www.w3.org/2000/svg">
<path d="M9.61666 23.8875C9.61666 25.2625 10.7292 26.375 12.1042 26.375C13.4792 26.375 14.5917 25.2625 14.5917 23.8875H9.61666ZM20.7042 18.65V11.375C20.7042 7.3125 17.8917 3.9125 14.0917 3.0125V2.1125C14.0917 1.0125 13.2042 0.125 12.1042 0.125C11.0042 0.125 10.1167 1.0125 10.1167 2.1125V3.0125C6.31666 3.9125 3.50416 7.3125 3.50416 11.375V18.65L0.854164 21.3V22.625H23.3542V21.3L20.7042 18.65ZM17.1042 13.8875H13.3542V17.6375H10.8542V13.8875H7.10416V11.375H10.8542V7.625H13.3542V11.375H17.1042V13.8875Z" fill="#FF7A00"/>
</svg>
